<?xml version="1.0" encoding="UTF-8" standalone="no"?>
<!DOCTYPE svg PUBLIC "-//W3C//DTD SVG 1.1//EN" "http://www.w3.org/Graphics/SVG/1.1/DTD/svg11.dtd">
<svg version="1.1" xmlns="http://www.w3.org/2000/svg" xmlns:xlink="http://www.w3.org/1999/xlink" preserveAspectRatio="xMidYMid meet" viewBox="0 0 640 640" width="640" height="640"><defs><path d="M619.12 284.4C619.12 424.95 505.01 539.06 364.47 539.06C223.92 539.06 109.82 424.95 109.82 284.4C109.82 143.86 223.92 29.75 364.47 29.75C505.01 29.75 619.12 143.86 619.12 284.4Z" id="a2Jc9RroMA"></path><path d="M495.48 410.54L289.88 295.79L289.88 66.09L472.72 169.08L265.48 283.18L62.62 169.08L239.98 66.09L239.98 295.79L39.23 410.54L39.23 211.66L239.98 324.99L239.98 560.37L62.62 453.97L265.48 336.8L472.72 453.97L289.88 560.37L289.88 324.99L495.48 211.66L495.48 410.54Z" id="b331vK4sZW"></path></defs><g><g><g><use xlink:href="#a2Jc9RroMA" opacity="1" fill="#00918f" fill-opacity="1"></use></g><g><g><use xlink:href="#b331vK4sZW" opacity="1" fill-opacity="0" stroke="#000000" stroke-width="24" stroke-opacity="1"></use></g></g></g></g></svg>