<?xml version="1.0" encoding="UTF-8" standalone="no"?>
<!DOCTYPE svg PUBLIC "-//W3C//DTD SVG 1.1//EN" "http://www.w3.org/Graphics/SVG/1.1/DTD/svg11.dtd">
<svg version="1.1" xmlns="http://www.w3.org/2000/svg" xmlns:xlink="http://www.w3.org/1999/xlink" preserveAspectRatio="xMidYMid meet" viewBox="0 0 640 640" width="640" height="640"><defs><path d="" id="a3gh1J9qsB"></path><path d="M318.43 350.08L316.52 348.72L314.63 347.33L312.73 345.91L310.84 344.47L308.96 343L307.09 341.5L305.22 339.97L303.35 338.42L301.49 336.84L299.64 335.23L297.8 333.6L295.96 331.94L294.12 330.25L292.29 328.53L290.47 326.79L288.65 325.02L286.84 323.22L285.03 321.4L283.24 319.54L281.44 317.66L279.65 315.76L277.87 313.82L276.1 311.86L274.33 309.88L272.56 307.86L270.8 305.82L269.05 303.75L267.3 301.65L265.56 299.53L263.83 297.38L262.1 295.2L260.38 292.99L258.66 290.76L256.95 288.5L255.24 286.21L253.54 283.9L251.85 281.56L250.16 279.19L248.48 276.79L246.04 273.14L243.76 269.44L241.64 265.67L239.67 261.85L237.86 257.99L236.2 254.08L234.68 250.14L233.31 246.16L232.08 242.16L230.99 238.13L230.04 234.08L229.22 230.03L228.54 225.96L227.99 221.88L227.56 217.81L227.26 213.75L227.08 209.69L227.02 205.65L227.09 201.63L227.26 197.64L227.55 193.67L227.95 189.74L228.46 185.85L229.07 182L229.79 178.2L230.61 174.45L231.52 170.76L232.53 167.14L233.64 163.58L234.83 160.1L236.12 156.69L237.48 153.37L238.94 150.13L240.47 146.98L242.08 143.93L243.77 140.98L245.54 138.14L247.37 135.41L249.27 132.8L251.24 130.3L252.58 128.7L253.95 127.14L255.33 125.61L256.73 124.12L258.15 122.67L259.6 121.26L261.06 119.88L262.54 118.54L264.04 117.24L265.56 115.98L267.1 114.76L268.66 113.57L270.24 112.42L271.84 111.31L273.46 110.24L275.1 109.2L276.76 108.21L278.44 107.25L280.13 106.32L281.85 105.44L283.59 104.59L285.35 103.79L287.12 103.02L288.92 102.28L290.74 101.59L292.57 100.93L294.43 100.31L296.3 99.73L298.2 99.19L300.11 98.68L302.05 98.22L304 97.79L305.97 97.4L307.97 97.04L309.98 96.73L312.01 96.45L314.07 96.21L316.14 96L318.23 95.84L320.34 95.71L320.34 351.41L318.43 350.08ZM324.54 96L326.62 96.21L328.67 96.45L330.7 96.73L332.71 97.04L334.71 97.4L336.68 97.79L338.63 98.22L340.57 98.68L342.48 99.19L344.38 99.73L346.25 100.31L348.11 100.93L349.94 101.59L351.76 102.28L353.56 103.02L355.33 103.79L357.09 104.59L358.83 105.44L360.55 106.32L362.24 107.25L363.92 108.21L365.58 109.2L367.22 110.24L368.84 111.31L370.44 112.42L372.02 113.57L373.58 114.76L375.12 115.98L376.64 117.24L378.14 118.54L379.62 119.88L381.08 121.26L382.53 122.67L383.95 124.12L385.35 125.61L386.73 127.14L388.1 128.7L389.44 130.3L391.41 132.8L393.31 135.41L395.15 138.14L396.91 140.98L398.6 143.93L400.21 146.98L401.74 150.13L403.2 153.37L404.57 156.69L405.85 160.1L407.04 163.58L408.15 167.14L409.16 170.76L410.08 174.45L410.89 178.2L411.61 182L412.22 185.85L412.73 189.74L413.13 193.67L413.42 197.64L413.6 201.63L413.66 205.65L413.6 209.69L413.42 213.75L413.12 217.81L412.7 221.88L412.14 225.96L411.46 230.03L410.64 234.08L409.69 238.13L408.6 242.16L407.37 246.16L406 250.14L404.48 254.08L402.82 257.99L401.01 261.85L399.04 265.67L396.92 269.44L394.64 273.14L392.2 276.79L390.52 279.19L388.83 281.56L387.14 283.9L385.44 286.21L383.73 288.5L382.02 290.76L380.3 292.99L378.58 295.2L376.85 297.38L375.12 299.53L373.38 301.65L371.63 303.75L369.88 305.82L368.12 307.86L366.35 309.88L364.58 311.86L362.81 313.82L361.03 315.76L359.24 317.66L357.45 319.54L355.65 321.4L353.84 323.22L352.03 325.02L350.21 326.79L348.39 328.53L346.56 330.25L344.73 331.94L342.89 333.6L341.04 335.23L339.19 336.84L337.33 338.42L335.46 339.97L333.59 341.5L331.72 343L329.84 344.47L327.95 345.91L326.06 347.33L324.16 348.72L322.25 350.08L320.34 351.41L320.34 95.71L322.45 95.84L324.54 96Z" id="b14Hib0tU6"></path><path d="" id="d2KaCEPxC0"></path><path d="M544.99 495.61L543.73 497.23L542.45 498.81L541.15 500.36L539.82 501.88L538.47 503.35L537.1 504.8L535.7 506.2L534.29 507.57L532.85 508.9L531.38 510.2L529.9 511.46L528.39 512.69L526.85 513.88L525.3 515.03L523.72 516.15L522.12 517.23L520.49 518.28L518.85 519.29L517.18 520.26L515.48 521.2L513.77 522.1L512.03 522.97L510.27 523.8L508.48 524.59L506.68 525.35L504.84 526.07L502.99 526.76L501.12 527.41L499.22 528.02L497.29 528.6L495.35 529.14L493.38 529.65L491.39 530.12L489.38 530.55L487.34 530.95L485.28 531.31L482.14 531.77L478.92 532.11L475.64 532.33L472.3 532.44L468.9 532.43L465.45 532.3L461.96 532.05L458.43 531.69L454.87 531.22L451.27 530.62L447.66 529.92L444.03 529.1L440.38 528.16L436.73 527.11L433.08 525.94L429.43 524.66L425.79 523.27L422.16 521.76L418.56 520.14L414.98 518.41L411.43 516.57L407.92 514.61L404.45 512.54L401.03 510.36L397.65 508.06L394.34 505.66L391.09 503.14L387.91 500.52L384.8 497.78L381.77 494.93L378.83 491.98L375.98 488.91L373.22 485.73L370.56 482.45L368.01 479.05L365.57 475.55L363.25 471.94L361.05 468.22L358.98 464.39L357.04 460.46L355.8 457.8L354.6 455.16L353.42 452.52L352.26 449.89L351.13 447.27L350.03 444.66L348.96 442.05L347.91 439.46L346.89 436.87L345.89 434.29L344.92 431.73L343.98 429.16L343.06 426.61L342.17 424.07L341.31 421.53L340.47 419L339.66 416.49L338.88 413.98L338.12 411.47L337.39 408.98L336.69 406.5L336.01 404.02L335.36 401.55L334.73 399.1L334.14 396.65L333.56 394.2L333.02 391.77L332.5 389.35L332.01 386.93L331.54 384.52L331.1 382.12L330.69 379.73L330.3 377.35L329.94 374.98L329.61 372.61L329.3 370.25L329.02 367.91L328.77 365.57L328.54 363.24L328.34 360.91L328.34 360.91L330.45 359.93L332.59 358.96L334.74 358.01L336.91 357.07L339.11 356.16L341.32 355.27L343.56 354.39L345.81 353.54L348.09 352.7L350.39 351.88L352.71 351.08L355.04 350.3L357.4 349.53L359.78 348.79L362.18 348.06L364.61 347.36L367.05 346.67L369.51 346L371.99 345.35L374.5 344.71L377.02 344.1L379.57 343.51L382.13 342.93L384.72 342.37L387.32 341.83L389.95 341.31L392.6 340.81L395.27 340.33L397.96 339.86L400.67 339.42L403.4 338.99L406.15 338.58L408.92 338.19L411.71 337.82L414.53 337.47L417.36 337.14L420.21 336.82L423.09 336.53L425.98 336.25L428.9 335.99L433.28 335.7L437.63 335.58L441.95 335.63L446.24 335.83L450.49 336.2L454.71 336.71L458.88 337.37L463.01 338.17L467.09 339.1L471.12 340.17L475.1 341.37L479.03 342.7L482.89 344.14L486.7 345.7L490.44 347.36L494.11 349.14L497.71 351.01L501.23 352.98L504.69 355.04L508.06 357.19L511.35 359.43L514.55 361.74L517.67 364.12L520.7 366.58L523.63 369.1L526.46 371.68L529.2 374.32L531.83 377.01L534.36 379.74L536.78 382.52L539.09 385.33L541.29 388.18L543.36 391.06L545.32 393.96L547.16 396.88L548.86 399.82L550.44 402.76L551.89 405.72L553.2 408.67L554.38 411.62L555.1 413.59L555.77 415.55L556.4 417.51L556.99 419.47L557.54 421.43L558.04 423.39L558.5 425.34L558.92 427.29L559.29 429.24L559.62 431.19L559.91 433.14L560.16 435.08L560.37 437.02L560.53 438.96L560.65 440.9L560.72 442.84L560.76 444.77L560.75 446.71L560.7 448.64L560.61 450.57L560.47 452.5L560.29 454.42L560.07 456.34L559.81 458.27L559.5 460.19L559.15 462.1L558.76 464.02L558.32 465.94L557.85 467.85L557.33 469.76L556.77 471.67L556.16 473.57L555.51 475.48L554.82 477.38L554.09 479.28L553.32 481.18L552.5 483.08L551.64 484.98L550.73 486.87L549.79 488.76L548.62 490.53L547.43 492.26L546.22 493.95L546.22 493.95L544.99 495.61Z" id="f2bmqjENRL"></path><path d="M310.98 367.91L310.7 370.25L310.39 372.61L310.06 374.98L309.7 377.35L309.31 379.73L308.9 382.12L308.46 384.52L307.99 386.93L307.5 389.35L306.98 391.77L306.44 394.2L305.86 396.65L305.27 399.1L304.64 401.55L303.99 404.02L303.31 406.5L302.61 408.98L301.88 411.47L301.12 413.98L300.34 416.49L299.53 419L298.69 421.53L297.83 424.07L296.94 426.61L296.02 429.16L295.08 431.73L294.11 434.29L293.11 436.87L292.09 439.46L291.04 442.05L289.97 444.66L288.87 447.27L287.74 449.89L286.58 452.52L285.4 455.16L284.2 457.8L282.96 460.46L281.02 464.39L278.95 468.22L276.75 471.94L274.43 475.55L271.99 479.05L269.44 482.45L266.78 485.73L264.02 488.91L261.17 491.98L258.23 494.93L255.2 497.78L252.09 500.52L248.91 503.14L245.66 505.66L242.35 508.06L238.97 510.36L235.55 512.54L232.08 514.61L228.57 516.57L225.02 518.41L221.44 520.14L217.84 521.76L214.21 523.27L210.57 524.66L206.92 525.94L203.27 527.11L199.62 528.16L195.97 529.1L192.34 529.92L188.73 530.62L185.13 531.22L181.57 531.69L178.04 532.05L174.55 532.3L171.1 532.43L167.7 532.44L164.36 532.33L161.08 532.11L157.86 531.77L154.72 531.31L152.66 530.95L150.62 530.55L148.61 530.12L146.62 529.65L144.65 529.14L142.71 528.6L140.78 528.02L138.88 527.41L137.01 526.76L135.16 526.07L133.32 525.35L131.52 524.59L129.73 523.8L127.97 522.97L126.23 522.1L124.52 521.2L122.82 520.26L121.15 519.29L119.51 518.28L117.88 517.23L116.28 516.15L114.7 515.03L113.15 513.88L111.61 512.69L110.1 511.46L108.62 510.2L107.15 508.9L105.71 507.57L104.3 506.2L102.9 504.8L101.53 503.35L100.18 501.88L98.85 500.36L97.55 498.81L96.27 497.23L95.01 495.61L93.78 493.95L92.57 492.26L91.38 490.53L90.21 488.76L311.66 360.91L311.46 363.24L311.23 365.57L311.23 365.57L310.98 367.91ZM214.02 336.25L216.91 336.53L219.79 336.82L222.64 337.14L225.47 337.47L228.29 337.82L231.08 338.19L233.85 338.58L236.6 338.99L239.33 339.42L242.04 339.86L244.73 340.33L247.4 340.81L250.05 341.31L252.68 341.83L255.28 342.37L257.87 342.93L260.43 343.51L262.98 344.1L265.5 344.71L268.01 345.35L270.49 346L272.95 346.67L275.39 347.36L277.82 348.06L280.22 348.79L282.6 349.53L284.96 350.3L287.29 351.08L289.61 351.88L291.91 352.7L294.19 353.54L296.44 354.39L298.68 355.27L300.89 356.16L303.09 357.07L305.26 358.01L307.41 358.96L309.55 359.93L311.66 360.91L90.21 488.76L89.27 486.87L88.36 484.98L87.5 483.08L86.68 481.18L85.91 479.28L85.18 477.38L84.49 475.48L83.84 473.57L83.23 471.67L82.67 469.76L82.15 467.85L81.68 465.94L81.24 464.02L80.85 462.1L80.5 460.19L80.19 458.27L79.93 456.34L79.71 454.42L79.53 452.5L79.39 450.57L79.3 448.64L79.25 446.71L79.24 444.77L79.28 442.84L79.35 440.9L79.47 438.96L79.63 437.02L79.84 435.08L80.09 433.14L80.38 431.19L80.71 429.24L81.08 427.29L81.5 425.34L81.96 423.39L82.46 421.43L83.01 419.47L83.6 417.51L84.23 415.55L84.9 413.59L85.62 411.62L86.8 408.67L88.11 405.72L89.56 402.76L91.14 399.82L92.84 396.88L94.68 393.96L96.64 391.06L98.71 388.18L100.91 385.33L103.22 382.52L105.64 379.74L108.17 377.01L110.8 374.32L113.54 371.68L116.37 369.1L119.3 366.58L122.33 364.12L125.45 361.74L128.65 359.43L131.94 357.19L135.31 355.04L138.77 352.98L142.29 351.01L145.89 349.14L149.56 347.36L153.3 345.7L157.11 344.14L160.97 342.7L164.9 341.37L168.88 340.17L172.91 339.1L176.99 338.17L181.12 337.37L185.29 336.71L189.51 336.2L193.76 335.83L198.05 335.63L202.37 335.58L206.72 335.7L211.1 335.99L211.1 335.99L214.02 336.25Z" id="aBkaQjsxi"></path></defs><g><g><g><g><use xlink:href="#a3gh1J9qsB" opacity="1" fill-opacity="0" stroke="#000000" stroke-width="1" stroke-opacity="1"></use></g></g><g><use xlink:href="#b14Hib0tU6" opacity="1" fill="#00a767" fill-opacity="1"></use></g><g><g><use xlink:href="#d2KaCEPxC0" opacity="1" fill-opacity="0" stroke="#000000" stroke-width="1" stroke-opacity="1"></use></g></g><g><use xlink:href="#f2bmqjENRL" opacity="1" fill="#00a767" fill-opacity="1"></use></g><g><use xlink:href="#aBkaQjsxi" opacity="1" fill="#00a767" fill-opacity="1"></use></g></g></g></svg>