<?xml version="1.0" standalone="no"?>
<!DOCTYPE svg PUBLIC "-//W3C//DTD SVG 20010904//EN"
 "http://www.w3.org/TR/2001/REC-SVG-20010904/DTD/svg10.dtd">
<svg version="1.0" xmlns="http://www.w3.org/2000/svg"
 width="700.000000pt" height="700.000000pt" viewBox="0 0 700.000000 700.000000"
 preserveAspectRatio="xMidYMid meet">
<metadata>
Created by potrace 1.11, written by Peter Selinger 2001-2013
</metadata>
<g transform="translate(0.000000,700.000000) scale(0.100000,-0.100000)"
fill="#000000" stroke="none">
<path d="M3330 5931 c-120 -26 -241 -75 -340 -139 -95 -61 -236 -198 -293
-285 -78 -118 -163 -330 -183 -457 -3 -19 -7 -37 -9 -41 -8 -12 -19 -161 -19
-254 0 -332 78 -568 282 -852 71 -100 80 -110 190 -242 143 -170 366 -380 510
-480 l32 -23 34 20 c18 11 44 29 57 40 13 11 58 48 99 82 276 231 603 632 715
875 57 126 99 290 112 440 51 597 -225 1104 -695 1275 -164 60 -335 74 -492
41z"/>
<path d="M2078 3325 c-2 -2 -31 -7 -63 -11 -33 -3 -63 -8 -66 -10 -3 -2 -21
-6 -40 -9 -124 -22 -331 -114 -480 -214 -95 -63 -253 -205 -317 -283 -107
-134 -184 -289 -216 -438 -25 -117 -26 -129 -26 -230 0 -136 8 -186 50 -312
16 -48 40 -109 54 -136 74 -146 246 -312 411 -394 57 -29 182 -75 223 -83 15
-3 38 -7 52 -10 14 -3 39 -8 55 -11 41 -7 233 -8 270 -1 17 4 49 9 73 12 53 8
218 55 289 84 123 49 336 176 400 237 11 11 42 40 69 65 150 138 260 313 369
589 20 52 41 104 45 115 42 105 110 342 139 485 17 85 23 124 36 250 l4 35
-117 48 c-214 86 -468 156 -672 183 -25 3 -47 8 -50 9 -3 2 -37 6 -75 10 -39
4 -81 9 -95 12 -31 6 -316 13 -322 8z"/>
<path d="M4668 3325 c-2 -1 -34 -5 -71 -9 -84 -8 -136 -15 -342 -50 -139 -24
-436 -114 -575 -174 -84 -37 -85 -38 -84 -72 1 -38 13 -135 19 -160 2 -8 7
-35 10 -60 8 -58 70 -298 96 -375 99 -290 192 -498 284 -635 184 -274 512
-496 850 -576 39 -9 81 -18 95 -20 14 -1 40 -5 58 -9 57 -11 247 -7 308 5 32
7 64 13 69 14 46 9 143 43 204 72 97 46 164 91 245 166 165 151 254 323 292
568 10 61 4 222 -10 295 -30 158 -74 267 -165 402 -207 309 -561 535 -951 608
-35 7 -326 16 -332 10z"/>
</g>
</svg>
